<?xml version="1.0" encoding="UTF-8" standalone="no"?><!DOCTYPE svg PUBLIC "-//W3C//DTD SVG 1.1//EN" "http://www.w3.org/Graphics/SVG/1.1/DTD/svg11.dtd"><svg width="100%" height="100%" viewBox="0 0 513 512" version="1.1" xmlns="http://www.w3.org/2000/svg" xmlns:xlink="http://www.w3.org/1999/xlink" xml:space="preserve" xmlns:serif="http://www.serif.com/" style="fill-rule:evenodd;clip-rule:evenodd;stroke-miterlimit:1.5;"><rect id="Back1" x="0.127" y="0" width="512" height="512" style="fill:none;"/><clipPath id="_clip1"><rect x="0.127" y="0" width="512" height="512"/></clipPath><g clip-path="url(#_clip1)"><g opacity="0.1"><g opacity="0.68"><g><rect x="0.127" y="0" width="128" height="128" style="fill:none;stroke:#fff;stroke-width:2px;"/><rect x="128.127" y="0" width="128" height="128" style="fill:none;stroke:#fff;stroke-width:2px;"/><rect x="0.127" y="128" width="128" height="128" style="fill:none;stroke:#fff;stroke-width:2px;"/><rect x="128.127" y="128" width="128" height="128" style="fill:none;stroke:#fff;stroke-width:2px;"/><rect x="256.127" y="0" width="128" height="128" style="fill:none;stroke:#fff;stroke-width:2px;"/><rect x="384.127" y="0" width="128" height="128" style="fill:none;stroke:#fff;stroke-width:2px;"/><rect x="256.127" y="128" width="128" height="128" style="fill:none;stroke:#fff;stroke-width:2px;"/><rect x="384.127" y="128" width="128" height="128" style="fill:none;stroke:#fff;stroke-width:2px;"/><rect x="0.127" y="256" width="128" height="128" style="fill:none;stroke:#fff;stroke-width:2px;"/><rect x="128.127" y="256" width="128" height="128" style="fill:none;stroke:#fff;stroke-width:2px;"/><rect x="0.127" y="384" width="128" height="128" style="fill:none;stroke:#fff;stroke-width:2px;"/><rect x="128.127" y="384" width="128" height="128" style="fill:none;stroke:#fff;stroke-width:2px;"/><rect x="256.127" y="256" width="128" height="128" style="fill:none;stroke:#fff;stroke-width:2px;"/><rect x="384.127" y="256" width="128" height="128" style="fill:none;stroke:#fff;stroke-width:2px;"/><rect x="256.127" y="384" width="128" height="128" style="fill:none;stroke:#fff;stroke-width:2px;"/><rect x="384.127" y="384" width="128" height="128" style="fill:none;stroke:#fff;stroke-width:2px;"/></g><g><rect x="0.127" y="0" width="128" height="128" style="fill:none;stroke:#fff;stroke-width:2px;"/><rect x="128.127" y="0" width="128" height="128" style="fill:none;stroke:#fff;stroke-width:2px;"/><rect x="0.127" y="128" width="128" height="128" style="fill:none;stroke:#fff;stroke-width:2px;"/><rect x="128.127" y="128" width="128" height="128" style="fill:none;stroke:#fff;stroke-width:2px;"/><rect x="256.127" y="0" width="128" height="128" style="fill:none;stroke:#fff;stroke-width:2px;"/><rect x="384.127" y="0" width="128" height="128" style="fill:none;stroke:#fff;stroke-width:2px;"/><rect x="256.127" y="128" width="128" height="128" style="fill:none;stroke:#fff;stroke-width:2px;"/><rect x="384.127" y="128" width="128" height="128" style="fill:none;stroke:#fff;stroke-width:2px;"/><rect x="0.127" y="256" width="128" height="128" style="fill:none;stroke:#fff;stroke-width:2px;"/><rect x="128.127" y="256" width="128" height="128" style="fill:none;stroke:#fff;stroke-width:2px;"/><rect x="0.127" y="384" width="128" height="128" style="fill:none;stroke:#fff;stroke-width:2px;"/><rect x="128.127" y="384" width="128" height="128" style="fill:none;stroke:#fff;stroke-width:2px;"/><rect x="256.127" y="256" width="128" height="128" style="fill:none;stroke:#fff;stroke-width:2px;"/><rect x="384.127" y="256" width="128" height="128" style="fill:none;stroke:#fff;stroke-width:2px;"/><rect x="256.127" y="384" width="128" height="128" style="fill:none;stroke:#fff;stroke-width:2px;"/><rect x="384.127" y="384" width="128" height="128" style="fill:none;stroke:#fff;stroke-width:2px;"/></g></g><g><rect x="0.127" y="0" width="512" height="512" style="fill:none;stroke:#fff;stroke-width:8px;"/></g><g><rect x="0.127" y="0" width="512" height="512" style="fill:none;stroke:#fff;stroke-width:8px;"/></g></g></g></svg>