<?xml version="1.0" encoding="UTF-8" standalone="no"?><!DOCTYPE svg PUBLIC "-//W3C//DTD SVG 1.1//EN" "http://www.w3.org/Graphics/SVG/1.1/DTD/svg11.dtd"><svg width="100%" height="100%" viewBox="0 0 1024 1024" version="1.1" xmlns="http://www.w3.org/2000/svg" xmlns:xlink="http://www.w3.org/1999/xlink" xml:space="preserve" xmlns:serif="http://www.serif.com/" style="fill-rule:evenodd;clip-rule:evenodd;stroke-linecap:round;stroke-linejoin:round;stroke-miterlimit:1.5;"><rect id="Background1" x="0" y="-0" width="1024" height="1024" style="fill:none;"/><g opacity="0.26"><rect x="0" y="0" width="1024" height="1024" style="fill-opacity:0.5;"/><g><path d="M355.71,350.912c-62.511,-16.75 -126.766,20.347 -143.516,82.859c-16.738,62.47 20.389,126.777 82.859,143.516c54.268,14.541 111.22,-11.481 135.75,-62.026c-24.53,50.545 -81.482,76.567 -135.75,62.026c-62.47,-16.739 -99.597,-81.046 -82.859,-143.516c16.75,-62.512 81.005,-99.609 143.516,-82.859Z" style="fill:#fff;stroke:#fff;stroke-width:36px;"/><path d="M594.569,362.303c3.296,-17.331 2.636,-35.182 -1.93,-52.223c-16.738,-62.469 -81.046,-99.597 -143.515,-82.858c-62.47,16.738 -99.598,81.046 -82.859,143.515c2.751,10.268 6.886,20.113 12.292,29.265c-5.406,-9.152 -9.541,-18.997 -12.292,-29.265c-16.739,-62.469 20.389,-126.777 82.859,-143.515c62.469,-16.739 126.777,20.389 143.515,82.858c4.566,17.041 5.226,34.892 1.93,52.223Z" style="fill:#fff;stroke:#fff;stroke-width:36px;"/><path d="M706.307,519.451c8.307,-6.912 15.618,-14.941 21.724,-23.857c36.545,-53.359 22.894,-126.349 -30.464,-162.894c-30.215,-20.694 -68.368,-26.072 -103.126,-14.536c34.758,-11.536 72.911,-6.158 103.126,14.536c53.358,36.545 67.009,109.535 30.464,162.894c-6.106,8.916 -13.417,16.945 -21.724,23.857Z" style="fill:none;stroke:#fff;stroke-width:36px;"/><path d="M584.148,557.358c9.363,42.805 41.823,76.81 84.146,88.15c62.47,16.739 126.777,-20.389 143.516,-82.859c14.349,-53.552 -10.796,-109.833 -60.26,-134.874c49.464,25.041 74.609,81.322 60.26,134.874c-16.739,62.47 -81.046,99.598 -143.516,82.859c-42.323,-11.34 -74.783,-45.345 -84.146,-88.15Z" style="fill:none;stroke:#fff;stroke-width:36px;"/><path d="M555.242,437.187c4.784,-35.035 -19.739,-67.316 -54.774,-72.1c-24.264,-3.314 -48.293,7.503 -61.899,27.865c13.606,-20.362 37.635,-31.179 61.899,-27.865c35.035,4.784 59.558,37.065 54.774,72.1Z" style="fill:none;stroke:#fff;stroke-width:36px;"/><path d="M343.949,579.606c-0.889,37.774 26.735,70.189 64.171,75.302c2.752,0.375 5.522,0.596 8.298,0.662c-2.776,-0.066 -5.546,-0.287 -8.298,-0.662c-37.436,-5.113 -65.06,-37.528 -64.171,-75.302Z" style="fill:none;stroke:#fff;stroke-width:36px;"/><path d="M547.435,727.507c-1.077,-32.676 -23.403,-60.801 -54.983,-69.263c-7.057,-1.891 -14.356,-2.729 -21.658,-2.489c7.302,-0.24 14.601,0.598 21.658,2.489c31.58,8.462 53.906,36.587 54.983,69.263Z" style="fill:none;stroke:#fff;stroke-width:36px;"/><path d="M411.202,654.817l57.914,0" style="fill:none;stroke:#fff;stroke-width:36px;"/><path d="M681.773,653.647l0,75.621" style="fill:none;stroke:#fff;stroke-width:36px;"/><path d="M547.873,732.467l-0,75.621" style="fill:none;stroke:#fff;stroke-width:36px;"/><path d="M529.626,523.534c21.313,28.216 61.464,33.812 89.68,12.499c19.541,-14.76 28.951,-39.374 24.24,-63.406c4.711,24.032 -4.699,48.646 -24.24,63.406c-28.216,21.313 -68.367,15.717 -89.68,-12.499Z" style="fill:none;stroke:#fff;stroke-width:36px;"/></g></g></svg>