<?xml version="1.0" encoding="UTF-8" standalone="no"?><!DOCTYPE svg PUBLIC "-//W3C//DTD SVG 1.1//EN" "http://www.w3.org/Graphics/SVG/1.1/DTD/svg11.dtd"><svg width="100%" height="100%" viewBox="0 0 513 512" version="1.1" xmlns="http://www.w3.org/2000/svg" xmlns:xlink="http://www.w3.org/1999/xlink" xml:space="preserve" xmlns:serif="http://www.serif.com/" style="fill-rule:evenodd;clip-rule:evenodd;stroke-linejoin:round;stroke-miterlimit:2;"><rect id="Back2" x="0.127" y="0" width="512" height="512" style="fill:none;"/><clipPath id="_clip1"><rect x="0.127" y="0" width="512" height="512"/></clipPath><g clip-path="url(#_clip1)"><g opacity="0.1"><g opacity="0.3"><g><path d="M510.095,1.968l0,-5.968l6.032,-0l-0,6.032l-5.968,-0l1.968,1.968l-2.032,-0l0,-1.968l-1.968,-0l-0,-2.032l1.968,1.968Zm0,508l0,-1.968l2.032,-0l-1.968,1.968l5.968,0l-0,6.032l-6.032,-0l0,-5.968l-1.968,1.968l-0,-2.032l1.968,0Zm-508,0l-1.968,-1.968l2.032,-0l-0,1.968l1.968,0l-0,2.032l-1.968,-1.968l-0,5.968l-6.032,-0l-0,-6.032l5.968,0Zm0.064,-508l1.968,-1.968l-0,2.032l-1.968,-0l-0,1.968l-2.032,-0l1.968,-1.968l-5.968,-0l-0,-6.032l6.032,-0l-0,5.968Zm505.968,8.191l8,-0l-0,4.063l-8,0l-0,-4.063Zm-0,12.19l8,-0l-0,4.063l-8,0l-0,-4.063Zm-0,12.191l8,-0l-0,4.064l-8,-0l-0,-4.064Zm-0,12.19l8,0l-0,4.064l-8,-0l-0,-4.064Zm-0,12.191l8,-0l-0,4.063l-8,0l-0,-4.063Zm-0,12.19l8,-0l-0,4.063l-8,0l-0,-4.063Zm-0,12.19l8,0l-0,4.064l-8,-0l-0,-4.064Zm-0,12.191l8,0l-0,4.064l-8,-0l-0,-4.064Zm-0,12.19l8,0l-0,4.064l-8,-0l-0,-4.064Zm-0,12.191l8,-0l-0,4.063l-8,0l-0,-4.063Zm-0,12.191l8,-0l-0,4.063l-8,0l-0,-4.063Zm-0,12.19l8,0l-0,4.064l-8,0l-0,-4.064Zm-0,12.191l8,-0l-0,4.063l-8,0l-0,-4.063Zm-0,12.19l8,-0l-0,4.064l-8,-0l-0,-4.064Zm-0,12.19l8,0l-0,4.064l-8,-0l-0,-4.064Zm-0,12.191l8,-0l-0,4.064l-8,-0l-0,-4.064Zm-0,12.191l8,0l-0,4.063l-8,0l-0,-4.063Zm-0,12.19l8,0l-0,4.064l-8,0l-0,-4.064Zm-0,12.191l8,-0l-0,4.063l-8,-0l-0,-4.063Zm-0,12.19l8,-0l-0,4.063l-8,0l-0,-4.063Zm-0,12.19l8,-0l-0,4.063l-8,-0l-0,-4.063Zm-0,12.191l8,-0l-0,4.063l-8,-0l-0,-4.063Zm-0,12.19l8,0l-0,4.064l-8,0l-0,-4.064Zm-0,12.191l8,0l-0,4.064l-8,-0l-0,-4.064Zm-0,12.189l8,0l-0,4.064l-8,-0l-0,-4.064Zm-0,12.192l8,-0l-0,4.063l-8,-0l-0,-4.063Zm-0,12.191l8,-0l-0,4.063l-8,0l-0,-4.063Zm-0,12.19l8,0l-0,4.063l-8,0l-0,-4.063Zm-0,12.19l8,-0l-0,4.063l-8,0l-0,-4.063Zm-0,12.19l8,0l-0,4.064l-8,-0l-0,-4.064Zm-0,12.191l8,0l-0,4.064l-8,-0l-0,-4.064Zm-0,12.191l8,-0l-0,4.063l-8,-0l-0,-4.063Zm-0,12.19l8,0l-0,4.064l-8,-0l-0,-4.064Zm-0,12.19l8,0l-0,4.064l-8,-0l-0,-4.064Zm-0,12.19l8,0l-0,4.064l-8,0l-0,-4.064Zm-0,12.191l8,-0l-0,4.063l-8,0l-0,-4.063Zm-0,12.191l8,-0l-0,4.063l-8,0l-0,-4.063Zm-0,12.19l8,0l-0,4.064l-8,-0l-0,-4.064Zm-0,12.191l8,-0l-0,4.063l-8,0l-0,-4.063Zm-0,12.19l8,0l-0,4.064l-8,-0l-0,-4.064Zm-0,12.191l8,-0l-0,4.063l-8,0l-0,-4.063Zm-6.159,10.222l0,8l-4.063,-0l-0,-8l4.063,-0Zm-12.19,-0l0,8l-4.063,-0l-0,-8l4.063,-0Zm-12.191,-0l0,8l-4.064,-0l0,-8l4.064,-0Zm-12.19,-0l-0,8l-4.064,-0l0,-8l4.064,-0Zm-12.191,-0l0,8l-4.064,-0l0,-8l4.064,-0Zm-12.19,-0l-0,8l-4.063,-0l-0,-8l4.063,-0Zm-12.19,-0l-0,8l-4.064,-0l-0,-8l4.064,-0Zm-12.191,-0l-0,8l-4.064,-0l0,-8l4.064,-0Zm-12.19,-0l-0,8l-4.064,-0l0,-8l4.064,-0Zm-12.191,-0l0,8l-4.063,-0l-0,-8l4.063,-0Zm-12.191,-0l0,8l-4.063,-0l-0,-8l4.063,-0Zm-12.19,-0l-0,8l-4.064,-0l-0,-8l4.064,-0Zm-12.191,-0l0,8l-4.063,-0l-0,-8l4.063,-0Zm-12.19,-0l-0,8l-4.064,-0l0,-8l4.064,-0Zm-12.19,-0l-0,8l-4.064,-0l0,-8l4.064,-0Zm-12.191,-0l0,8l-4.064,-0l0,-8l4.064,-0Zm-12.191,-0l-0,8l-4.063,-0l-0,-8l4.063,-0Zm-12.19,-0l-0,8l-4.064,-0l-0,-8l4.064,-0Zm-12.191,-0l0,8l-4.063,-0l0,-8l4.063,-0Zm-12.19,-0l0,8l-4.063,-0l-0,-8l4.063,-0Zm-12.19,-0l0,8l-4.063,-0l0,-8l4.063,-0Zm-12.191,-0l0,8l-4.063,-0l0,-8l4.063,-0Zm-12.19,-0l-0,8l-4.064,-0l-0,-8l4.064,-0Zm-12.191,-0l-0,8l-4.064,-0l0,-8l4.064,-0Zm-12.189,-0l-0,8l-4.064,-0l0,-8l4.064,-0Zm-12.192,-0l0,8l-4.063,-0l0,-8l4.063,-0Zm-12.191,-0l0,8l-4.063,-0l-0,-8l4.063,-0Zm-12.19,-0l-0,8l-4.063,-0l-0,-8l4.063,-0Zm-12.19,-0l0,8l-4.064,-0l0,-8l4.064,-0Zm-12.19,-0l-0,8l-4.064,-0l0,-8l4.064,-0Zm-12.191,-0l-0,8l-4.064,-0l0,-8l4.064,-0Zm-12.191,-0l0,8l-4.063,-0l0,-8l4.063,-0Zm-12.19,-0l-0,8l-4.064,-0l0,-8l4.064,-0Zm-12.19,-0l-0,8l-4.064,-0l0,-8l4.064,-0Zm-12.19,-0l-0,8l-4.064,-0l-0,-8l4.064,-0Zm-12.191,-0l0,8l-4.063,-0l-0,-8l4.063,-0Zm-12.191,-0l0,8l-4.063,-0l-0,-8l4.063,-0Zm-12.19,-0l-0,8l-4.064,-0l0,-8l4.064,-0Zm-12.191,-0l0,8l-4.063,-0l-0,-8l4.063,-0Zm-12.19,-0l-0,8l-4.064,-0l0,-8l4.064,-0Zm-12.191,-0l0,8l-4.063,-0l-0,-8l4.063,-0Zm-10.222,-6.159l-8,0l-0,-4.063l8,-0l-0,4.063Zm-0,-12.19l-8,0l-0,-4.063l8,-0l-0,4.063Zm-0,-12.191l-8,0l-0,-4.064l8,0l-0,4.064Zm-0,-12.19l-8,-0l-0,-4.064l8,0l-0,4.064Zm-0,-12.191l-8,0l-0,-4.063l8,-0l-0,4.063Zm-0,-12.19l-8,0l-0,-4.063l8,-0l-0,4.063Zm-0,-12.19l-8,-0l-0,-4.064l8,0l-0,4.064Zm-0,-12.191l-8,-0l-0,-4.064l8,0l-0,4.064Zm-0,-12.19l-8,-0l-0,-4.064l8,0l-0,4.064Zm-0,-12.191l-8,0l-0,-4.063l8,-0l-0,4.063Zm-0,-12.191l-8,0l-0,-4.063l8,-0l-0,4.063Zm-0,-12.19l-8,-0l-0,-4.064l8,-0l-0,4.064Zm-0,-12.191l-8,0l-0,-4.063l8,-0l-0,4.063Zm-0,-12.19l-8,0l-0,-4.064l8,0l-0,4.064Zm-0,-12.19l-8,-0l-0,-4.064l8,0l-0,4.064Zm-0,-12.191l-8,0l-0,-4.064l8,0l-0,4.064Zm-0,-12.191l-8,-0l-0,-4.063l8,-0l-0,4.063Zm-0,-12.19l-8,-0l-0,-4.064l8,-0l-0,4.064Zm-0,-12.191l-8,0l-0,-4.063l8,0l-0,4.063Zm-0,-12.19l-8,0l-0,-4.063l8,-0l-0,4.063Zm-0,-12.19l-8,0l-0,-4.063l8,0l-0,4.063Zm-0,-12.191l-8,0l-0,-4.063l8,0l-0,4.063Zm-0,-12.19l-8,-0l-0,-4.064l8,-0l-0,4.064Zm-0,-12.191l-8,-0l-0,-4.064l8,0l-0,4.064Zm-0,-12.189l-8,-0l-0,-4.064l8,0l-0,4.064Zm-0,-12.192l-8,0l-0,-4.063l8,0l-0,4.063Zm-0,-12.191l-8,0l-0,-4.063l8,-0l-0,4.063Zm-0,-12.19l-8,-0l-0,-4.063l8,-0l-0,4.063Zm-0,-12.19l-8,0l-0,-4.063l8,-0l-0,4.063Zm-0,-12.19l-8,-0l-0,-4.064l8,0l-0,4.064Zm-0,-12.191l-8,-0l-0,-4.064l8,0l-0,4.064Zm-0,-12.191l-8,0l-0,-4.063l8,0l-0,4.063Zm-0,-12.19l-8,-0l-0,-4.064l8,0l-0,4.064Zm-0,-12.19l-8,-0l-0,-4.064l8,0l-0,4.064Zm-0,-12.19l-8,-0l-0,-4.064l8,-0l-0,4.064Zm-0,-12.191l-8,0l-0,-4.063l8,-0l-0,4.063Zm-0,-12.191l-8,0l-0,-4.063l8,-0l-0,4.063Zm-0,-12.19l-8,-0l-0,-4.064l8,0l-0,4.064Zm-0,-12.191l-8,0l-0,-4.063l8,-0l-0,4.063Zm-0,-12.19l-8,-0l-0,-4.064l8,0l-0,4.064Zm-0,-12.191l-8,0l-0,-4.063l8,-0l-0,4.063Zm6.159,-10.222l-0,-8l4.063,-0l0,8l-4.063,-0Zm12.19,-0l-0,-8l4.063,-0l0,8l-4.063,-0Zm12.191,-0l-0,-8l4.064,-0l-0,8l-4.064,-0Zm12.19,-0l0,-8l4.064,-0l-0,8l-4.064,-0Zm12.191,-0l-0,-8l4.063,-0l0,8l-4.063,-0Zm12.19,-0l-0,-8l4.063,-0l0,8l-4.063,-0Zm12.19,-0l0,-8l4.064,-0l-0,8l-4.064,-0Zm12.191,-0l0,-8l4.064,-0l-0,8l-4.064,-0Zm12.19,-0l0,-8l4.064,-0l-0,8l-4.064,-0Zm12.191,-0l-0,-8l4.063,-0l0,8l-4.063,-0Zm12.191,-0l-0,-8l4.063,-0l0,8l-4.063,-0Zm12.19,-0l0,-8l4.064,-0l0,8l-4.064,-0Zm12.191,-0l-0,-8l4.063,-0l0,8l-4.063,-0Zm12.19,-0l-0,-8l4.064,-0l-0,8l-4.064,-0Zm12.19,-0l0,-8l4.064,-0l-0,8l-4.064,-0Zm12.191,-0l-0,-8l4.063,-0l0,8l-4.063,-0Zm12.191,-0l0,-8l4.063,-0l0,8l-4.063,-0Zm12.19,-0l0,-8l4.064,-0l0,8l-4.064,-0Zm12.19,-0l0,-8l4.064,-0l-0,8l-4.064,-0Zm12.191,-0l-0,-8l4.063,-0l0,8l-4.063,-0Zm12.19,-0l-0,-8l4.063,-0l-0,8l-4.063,-0Zm12.19,-0l0,-8l4.064,-0l-0,8l-4.064,-0Zm12.191,-0l0,-8l4.064,-0l0,8l-4.064,-0Zm12.191,-0l0,-8l4.064,-0l-0,8l-4.064,-0Zm12.189,-0l0,-8l4.064,-0l-0,8l-4.064,-0Zm12.192,-0l-0,-8l4.063,-0l-0,8l-4.063,-0Zm12.191,-0l-0,-8l4.063,-0l0,8l-4.063,-0Zm12.19,-0l0,-8l4.063,-0l0,8l-4.063,-0Zm12.19,-0l-0,-8l4.063,-0l0,8l-4.063,-0Zm12.19,-0l0,-8l4.064,-0l-0,8l-4.064,-0Zm12.191,-0l0,-8l4.064,-0l-0,8l-4.064,-0Zm12.191,-0l-0,-8l4.063,-0l-0,8l-4.063,-0Zm12.19,-0l0,-8l4.064,-0l-0,8l-4.064,-0Zm12.19,-0l0,-8l4.064,-0l-0,8l-4.064,-0Zm12.19,-0l0,-8l4.064,-0l0,8l-4.064,-0Zm12.191,-0l-0,-8l4.063,-0l0,8l-4.063,-0Zm12.191,-0l-0,-8l4.063,-0l0,8l-4.063,-0Zm12.19,-0l0,-8l4.064,-0l-0,8l-4.064,-0Zm12.191,-0l-0,-8l4.063,-0l0,8l-4.063,-0Zm12.19,-0l0,-8l4.064,-0l-0,8l-4.064,-0Zm12.191,-0l-0,-8l4.063,-0l0,8l-4.063,-0Z" style="fill:#fff;"/></g><g><path d="M510.095,1.968l0,-5.968l6.032,-0l-0,6.032l-5.968,-0l1.968,1.968l-2.032,-0l0,-1.968l-1.968,-0l-0,-2.032l1.968,1.968Zm0,508l0,-1.968l2.032,-0l-1.968,1.968l5.968,0l-0,6.032l-6.032,-0l0,-5.968l-1.968,1.968l-0,-2.032l1.968,0Zm-508,0l-1.968,-1.968l2.032,-0l-0,1.968l1.968,0l-0,2.032l-1.968,-1.968l-0,5.968l-6.032,-0l-0,-6.032l5.968,0Zm0.064,-508l1.968,-1.968l-0,2.032l-1.968,-0l-0,1.968l-2.032,-0l1.968,-1.968l-5.968,-0l-0,-6.032l6.032,-0l-0,5.968Zm505.968,8.191l8,-0l-0,4.063l-8,0l-0,-4.063Zm-0,12.19l8,-0l-0,4.063l-8,0l-0,-4.063Zm-0,12.191l8,-0l-0,4.064l-8,-0l-0,-4.064Zm-0,12.19l8,0l-0,4.064l-8,-0l-0,-4.064Zm-0,12.191l8,-0l-0,4.063l-8,0l-0,-4.063Zm-0,12.19l8,-0l-0,4.063l-8,0l-0,-4.063Zm-0,12.19l8,0l-0,4.064l-8,-0l-0,-4.064Zm-0,12.191l8,0l-0,4.064l-8,-0l-0,-4.064Zm-0,12.19l8,0l-0,4.064l-8,-0l-0,-4.064Zm-0,12.191l8,-0l-0,4.063l-8,0l-0,-4.063Zm-0,12.191l8,-0l-0,4.063l-8,0l-0,-4.063Zm-0,12.19l8,0l-0,4.064l-8,0l-0,-4.064Zm-0,12.191l8,-0l-0,4.063l-8,0l-0,-4.063Zm-0,12.19l8,-0l-0,4.064l-8,-0l-0,-4.064Zm-0,12.19l8,0l-0,4.064l-8,-0l-0,-4.064Zm-0,12.191l8,-0l-0,4.064l-8,-0l-0,-4.064Zm-0,12.191l8,0l-0,4.063l-8,0l-0,-4.063Zm-0,12.19l8,0l-0,4.064l-8,0l-0,-4.064Zm-0,12.191l8,-0l-0,4.063l-8,-0l-0,-4.063Zm-0,12.19l8,-0l-0,4.063l-8,0l-0,-4.063Zm-0,12.19l8,-0l-0,4.063l-8,-0l-0,-4.063Zm-0,12.191l8,-0l-0,4.063l-8,-0l-0,-4.063Zm-0,12.19l8,0l-0,4.064l-8,0l-0,-4.064Zm-0,12.191l8,0l-0,4.064l-8,-0l-0,-4.064Zm-0,12.189l8,0l-0,4.064l-8,-0l-0,-4.064Zm-0,12.192l8,-0l-0,4.063l-8,-0l-0,-4.063Zm-0,12.191l8,-0l-0,4.063l-8,0l-0,-4.063Zm-0,12.19l8,0l-0,4.063l-8,0l-0,-4.063Zm-0,12.19l8,-0l-0,4.063l-8,0l-0,-4.063Zm-0,12.19l8,0l-0,4.064l-8,-0l-0,-4.064Zm-0,12.191l8,0l-0,4.064l-8,-0l-0,-4.064Zm-0,12.191l8,-0l-0,4.063l-8,-0l-0,-4.063Zm-0,12.19l8,0l-0,4.064l-8,-0l-0,-4.064Zm-0,12.19l8,0l-0,4.064l-8,-0l-0,-4.064Zm-0,12.19l8,0l-0,4.064l-8,0l-0,-4.064Zm-0,12.191l8,-0l-0,4.063l-8,0l-0,-4.063Zm-0,12.191l8,-0l-0,4.063l-8,0l-0,-4.063Zm-0,12.19l8,0l-0,4.064l-8,-0l-0,-4.064Zm-0,12.191l8,-0l-0,4.063l-8,0l-0,-4.063Zm-0,12.19l8,0l-0,4.064l-8,-0l-0,-4.064Zm-0,12.191l8,-0l-0,4.063l-8,0l-0,-4.063Zm-6.159,10.222l0,8l-4.063,-0l-0,-8l4.063,-0Zm-12.19,-0l0,8l-4.063,-0l-0,-8l4.063,-0Zm-12.191,-0l0,8l-4.064,-0l0,-8l4.064,-0Zm-12.19,-0l-0,8l-4.064,-0l0,-8l4.064,-0Zm-12.191,-0l0,8l-4.064,-0l0,-8l4.064,-0Zm-12.19,-0l-0,8l-4.063,-0l-0,-8l4.063,-0Zm-12.19,-0l-0,8l-4.064,-0l-0,-8l4.064,-0Zm-12.191,-0l-0,8l-4.064,-0l0,-8l4.064,-0Zm-12.19,-0l-0,8l-4.064,-0l0,-8l4.064,-0Zm-12.191,-0l0,8l-4.063,-0l-0,-8l4.063,-0Zm-12.191,-0l0,8l-4.063,-0l-0,-8l4.063,-0Zm-12.19,-0l-0,8l-4.064,-0l-0,-8l4.064,-0Zm-12.191,-0l0,8l-4.063,-0l-0,-8l4.063,-0Zm-12.19,-0l-0,8l-4.064,-0l0,-8l4.064,-0Zm-12.19,-0l-0,8l-4.064,-0l0,-8l4.064,-0Zm-12.191,-0l0,8l-4.064,-0l0,-8l4.064,-0Zm-12.191,-0l-0,8l-4.063,-0l-0,-8l4.063,-0Zm-12.19,-0l-0,8l-4.064,-0l-0,-8l4.064,-0Zm-12.191,-0l0,8l-4.063,-0l0,-8l4.063,-0Zm-12.19,-0l0,8l-4.063,-0l-0,-8l4.063,-0Zm-12.19,-0l0,8l-4.063,-0l0,-8l4.063,-0Zm-12.191,-0l0,8l-4.063,-0l0,-8l4.063,-0Zm-12.19,-0l-0,8l-4.064,-0l-0,-8l4.064,-0Zm-12.191,-0l-0,8l-4.064,-0l0,-8l4.064,-0Zm-12.189,-0l-0,8l-4.064,-0l0,-8l4.064,-0Zm-12.192,-0l0,8l-4.063,-0l0,-8l4.063,-0Zm-12.191,-0l0,8l-4.063,-0l-0,-8l4.063,-0Zm-12.19,-0l-0,8l-4.063,-0l-0,-8l4.063,-0Zm-12.19,-0l0,8l-4.064,-0l0,-8l4.064,-0Zm-12.19,-0l-0,8l-4.064,-0l0,-8l4.064,-0Zm-12.191,-0l-0,8l-4.064,-0l0,-8l4.064,-0Zm-12.191,-0l0,8l-4.063,-0l0,-8l4.063,-0Zm-12.19,-0l-0,8l-4.064,-0l0,-8l4.064,-0Zm-12.19,-0l-0,8l-4.064,-0l0,-8l4.064,-0Zm-12.19,-0l-0,8l-4.064,-0l-0,-8l4.064,-0Zm-12.191,-0l0,8l-4.063,-0l-0,-8l4.063,-0Zm-12.191,-0l0,8l-4.063,-0l-0,-8l4.063,-0Zm-12.19,-0l-0,8l-4.064,-0l0,-8l4.064,-0Zm-12.191,-0l0,8l-4.063,-0l-0,-8l4.063,-0Zm-12.19,-0l-0,8l-4.064,-0l0,-8l4.064,-0Zm-12.191,-0l0,8l-4.063,-0l-0,-8l4.063,-0Zm-10.222,-6.159l-8,0l-0,-4.063l8,-0l-0,4.063Zm-0,-12.19l-8,0l-0,-4.063l8,-0l-0,4.063Zm-0,-12.191l-8,0l-0,-4.064l8,0l-0,4.064Zm-0,-12.19l-8,-0l-0,-4.064l8,0l-0,4.064Zm-0,-12.191l-8,0l-0,-4.063l8,-0l-0,4.063Zm-0,-12.19l-8,0l-0,-4.063l8,-0l-0,4.063Zm-0,-12.19l-8,-0l-0,-4.064l8,0l-0,4.064Zm-0,-12.191l-8,-0l-0,-4.064l8,0l-0,4.064Zm-0,-12.19l-8,-0l-0,-4.064l8,0l-0,4.064Zm-0,-12.191l-8,0l-0,-4.063l8,-0l-0,4.063Zm-0,-12.191l-8,0l-0,-4.063l8,-0l-0,4.063Zm-0,-12.19l-8,-0l-0,-4.064l8,-0l-0,4.064Zm-0,-12.191l-8,0l-0,-4.063l8,-0l-0,4.063Zm-0,-12.19l-8,0l-0,-4.064l8,0l-0,4.064Zm-0,-12.19l-8,-0l-0,-4.064l8,0l-0,4.064Zm-0,-12.191l-8,0l-0,-4.064l8,0l-0,4.064Zm-0,-12.191l-8,-0l-0,-4.063l8,-0l-0,4.063Zm-0,-12.19l-8,-0l-0,-4.064l8,-0l-0,4.064Zm-0,-12.191l-8,0l-0,-4.063l8,0l-0,4.063Zm-0,-12.19l-8,0l-0,-4.063l8,-0l-0,4.063Zm-0,-12.19l-8,0l-0,-4.063l8,0l-0,4.063Zm-0,-12.191l-8,0l-0,-4.063l8,0l-0,4.063Zm-0,-12.19l-8,-0l-0,-4.064l8,-0l-0,4.064Zm-0,-12.191l-8,-0l-0,-4.064l8,0l-0,4.064Zm-0,-12.189l-8,-0l-0,-4.064l8,0l-0,4.064Zm-0,-12.192l-8,0l-0,-4.063l8,0l-0,4.063Zm-0,-12.191l-8,0l-0,-4.063l8,-0l-0,4.063Zm-0,-12.19l-8,-0l-0,-4.063l8,-0l-0,4.063Zm-0,-12.19l-8,0l-0,-4.063l8,-0l-0,4.063Zm-0,-12.19l-8,-0l-0,-4.064l8,0l-0,4.064Zm-0,-12.191l-8,-0l-0,-4.064l8,0l-0,4.064Zm-0,-12.191l-8,0l-0,-4.063l8,0l-0,4.063Zm-0,-12.19l-8,-0l-0,-4.064l8,0l-0,4.064Zm-0,-12.19l-8,-0l-0,-4.064l8,0l-0,4.064Zm-0,-12.19l-8,-0l-0,-4.064l8,-0l-0,4.064Zm-0,-12.191l-8,0l-0,-4.063l8,-0l-0,4.063Zm-0,-12.191l-8,0l-0,-4.063l8,-0l-0,4.063Zm-0,-12.19l-8,-0l-0,-4.064l8,0l-0,4.064Zm-0,-12.191l-8,0l-0,-4.063l8,-0l-0,4.063Zm-0,-12.19l-8,-0l-0,-4.064l8,0l-0,4.064Zm-0,-12.191l-8,0l-0,-4.063l8,-0l-0,4.063Zm6.159,-10.222l-0,-8l4.063,-0l0,8l-4.063,-0Zm12.19,-0l-0,-8l4.063,-0l0,8l-4.063,-0Zm12.191,-0l-0,-8l4.064,-0l-0,8l-4.064,-0Zm12.19,-0l0,-8l4.064,-0l-0,8l-4.064,-0Zm12.191,-0l-0,-8l4.063,-0l0,8l-4.063,-0Zm12.19,-0l-0,-8l4.063,-0l0,8l-4.063,-0Zm12.19,-0l0,-8l4.064,-0l-0,8l-4.064,-0Zm12.191,-0l0,-8l4.064,-0l-0,8l-4.064,-0Zm12.19,-0l0,-8l4.064,-0l-0,8l-4.064,-0Zm12.191,-0l-0,-8l4.063,-0l0,8l-4.063,-0Zm12.191,-0l-0,-8l4.063,-0l0,8l-4.063,-0Zm12.19,-0l0,-8l4.064,-0l0,8l-4.064,-0Zm12.191,-0l-0,-8l4.063,-0l0,8l-4.063,-0Zm12.19,-0l-0,-8l4.064,-0l-0,8l-4.064,-0Zm12.19,-0l0,-8l4.064,-0l-0,8l-4.064,-0Zm12.191,-0l-0,-8l4.063,-0l0,8l-4.063,-0Zm12.191,-0l0,-8l4.063,-0l0,8l-4.063,-0Zm12.19,-0l0,-8l4.064,-0l0,8l-4.064,-0Zm12.19,-0l0,-8l4.064,-0l-0,8l-4.064,-0Zm12.191,-0l-0,-8l4.063,-0l0,8l-4.063,-0Zm12.19,-0l-0,-8l4.063,-0l-0,8l-4.063,-0Zm12.19,-0l0,-8l4.064,-0l-0,8l-4.064,-0Zm12.191,-0l0,-8l4.064,-0l0,8l-4.064,-0Zm12.191,-0l0,-8l4.064,-0l-0,8l-4.064,-0Zm12.189,-0l0,-8l4.064,-0l-0,8l-4.064,-0Zm12.192,-0l-0,-8l4.063,-0l-0,8l-4.063,-0Zm12.191,-0l-0,-8l4.063,-0l0,8l-4.063,-0Zm12.19,-0l0,-8l4.063,-0l0,8l-4.063,-0Zm12.19,-0l-0,-8l4.063,-0l0,8l-4.063,-0Zm12.19,-0l0,-8l4.064,-0l-0,8l-4.064,-0Zm12.191,-0l0,-8l4.064,-0l-0,8l-4.064,-0Zm12.191,-0l-0,-8l4.063,-0l-0,8l-4.063,-0Zm12.19,-0l0,-8l4.064,-0l-0,8l-4.064,-0Zm12.19,-0l0,-8l4.064,-0l-0,8l-4.064,-0Zm12.19,-0l0,-8l4.064,-0l0,8l-4.064,-0Zm12.191,-0l-0,-8l4.063,-0l0,8l-4.063,-0Zm12.191,-0l-0,-8l4.063,-0l0,8l-4.063,-0Zm12.19,-0l0,-8l4.064,-0l-0,8l-4.064,-0Zm12.191,-0l-0,-8l4.063,-0l0,8l-4.063,-0Zm12.19,-0l0,-8l4.064,-0l-0,8l-4.064,-0Zm12.191,-0l-0,-8l4.063,-0l0,8l-4.063,-0Z" style="fill:#fff;"/></g></g><g><rect x="-9.873" y="-10" width="20" height="20" style="fill:#fff;"/><rect x="502.127" y="-10" width="20" height="20" style="fill:#fff;"/><rect x="502.127" y="502" width="20" height="20" style="fill:#fff;"/><rect x="-9.873" y="502" width="20" height="20" style="fill:#fff;"/></g><g><rect x="-9.873" y="-10" width="20" height="20" style="fill:#fff;"/><rect x="502.127" y="-10" width="20" height="20" style="fill:#fff;"/><rect x="502.127" y="502" width="20" height="20" style="fill:#fff;"/><rect x="-9.873" y="502" width="20" height="20" style="fill:#fff;"/></g></g></g></svg>