<?xml version="1.0" encoding="UTF-8" standalone="no"?><!DOCTYPE svg PUBLIC "-//W3C//DTD SVG 1.1//EN" "http://www.w3.org/Graphics/SVG/1.1/DTD/svg11.dtd"><svg width="100%" height="100%" viewBox="0 0 513 512" version="1.1" xmlns="http://www.w3.org/2000/svg" xmlns:xlink="http://www.w3.org/1999/xlink" xml:space="preserve" xmlns:serif="http://www.serif.com/" style="fill-rule:evenodd;clip-rule:evenodd;stroke-miterlimit:1.5;"><rect id="Block4" x="0.127" y="0" width="512" height="512" style="fill:none;"/><clipPath id="_clip1"><rect x="0.127" y="0" width="512" height="512"/></clipPath><g clip-path="url(#_clip1)"><g><g><path d="M424.127,56l32,36l-0,364l-400,0l-0,-367l30,-33l338,-0Z" style="fill:none;stroke:#fff;stroke-opacity:0.13;stroke-width:8px;"/><path d="M456.127,181c-204.688,-0 -400,0.384 -400,0.384l-0,-95.384l29.768,-30l336.826,0l33.406,30l-0,95Z" style="fill:#fff;fill-opacity:0.13;stroke:#fff;stroke-width:16px;"/></g><g><path d="M424.127,56l32,36l-0,364l-400,0l-0,-367l30,-33l338,-0Z" style="fill:none;stroke:#fff;stroke-opacity:0.13;stroke-width:8px;"/><path d="M456.127,181c-204.688,-0 -400,0.384 -400,0.384l-0,-95.384l29.768,-30l336.826,0l33.406,30l-0,95Z" style="fill:#fff;fill-opacity:0.13;stroke:#fff;stroke-width:16px;"/></g></g></g></svg>