<?xml version="1.0" encoding="UTF-8" standalone="no"?><!DOCTYPE svg PUBLIC "-//W3C//DTD SVG 1.1//EN" "http://www.w3.org/Graphics/SVG/1.1/DTD/svg11.dtd"><svg width="100%" height="100%" viewBox="0 0 1025 1024" version="1.1" xmlns="http://www.w3.org/2000/svg" xmlns:xlink="http://www.w3.org/1999/xlink" xml:space="preserve" xmlns:serif="http://www.serif.com/" style="fill-rule:evenodd;clip-rule:evenodd;stroke-miterlimit:1.5;"><rect id="Frame2" x="0.127" y="0" width="1024" height="1024" style="fill:none;"/><clipPath id="_clip1"><rect x="0.127" y="0" width="1024" height="1024"/></clipPath><g clip-path="url(#_clip1)"><g opacity="0.13"><g><path d="M883.127,56l85,85l-0,827l-857,-0l-55,-55l-0,-857l827,-0Z" style="fill-opacity:0.4;stroke:#fff;stroke-width:8px;"/><path d="M203.127,52l-37,25l-114,0l-0,-25l151,0Z" style="fill:#fff;"/><rect x="52.127" y="552" width="16" height="312" style="fill:#fff;"/><rect x="52.127" y="523" width="16" height="14" style="fill:#fff;"/><rect x="52.127" y="494" width="16" height="14" style="fill:#fff;"/><path d="M752.127,52l-20,25l-368,0l-20,-25l408,0Z" style="fill:#fff;"/></g><g><path d="M883.127,56l85,85l-0,827l-857,-0l-55,-55l-0,-857l827,-0Z" style="fill-opacity:0.4;stroke:#fff;stroke-width:8px;"/><path d="M203.127,52l-37,25l-114,0l-0,-25l151,0Z" style="fill:#fff;"/><rect x="52.127" y="552" width="16" height="312" style="fill:#fff;"/><rect x="52.127" y="523" width="16" height="14" style="fill:#fff;"/><rect x="52.127" y="494" width="16" height="14" style="fill:#fff;"/><path d="M752.127,52l-20,25l-368,0l-20,-25l408,0Z" style="fill:#fff;"/></g></g></g></svg>