<?xml version="1.0" encoding="UTF-8" standalone="no"?><!DOCTYPE svg PUBLIC "-//W3C//DTD SVG 1.1//EN" "http://www.w3.org/Graphics/SVG/1.1/DTD/svg11.dtd"><svg width="100%" height="100%" viewBox="0 0 257 256" version="1.1" xmlns="http://www.w3.org/2000/svg" xmlns:xlink="http://www.w3.org/1999/xlink" xml:space="preserve" xmlns:serif="http://www.serif.com/" style="fill-rule:evenodd;clip-rule:evenodd;stroke-miterlimit:1.5;"><rect id="Icon5" x="0.127" y="0" width="256" height="256" style="fill:none;"/><clipPath id="_clip1"><rect x="0.127" y="0" width="256" height="256"/></clipPath><g clip-path="url(#_clip1)"><g><g><path d="M128.127,23.927l89.634,51.75l-0,103.5l-89.634,51.75l-89.634,-51.75l0,-103.5l89.634,-51.75Z" style="fill:none;stroke:#fff;stroke-width:16px;"/><path d="M128.127,59l58,105l-116,-0l58,-105Z" style="fill:none;stroke:#fff;stroke-width:16px;"/><path d="M128.127,23.927l-0,35.073" style="fill:none;stroke:#fff;stroke-width:16px;"/><path d="M186.127,164l31.634,15" style="fill:none;stroke:#fff;stroke-width:16px;"/><path d="M70.127,164l-31.634,15" style="fill:none;stroke:#fff;stroke-width:16px;"/><path d="M128.127,59l-89.634,14l36,91" style="fill:none;stroke:#fff;stroke-opacity:0.37;stroke-width:16px;"/><path d="M186.127,164l31.634,-88l-89.634,-17" style="fill:none;stroke:#fff;stroke-opacity:0.37;stroke-width:16px;"/><path d="M186.127,164l-58,66.927l-58,-66.927" style="fill:none;stroke:#fff;stroke-opacity:0.37;stroke-width:16px;"/></g><g><path d="M128.127,23.927l89.634,51.75l-0,103.5l-89.634,51.75l-89.634,-51.75l0,-103.5l89.634,-51.75Z" style="fill:none;stroke:#fff;stroke-width:16px;"/><path d="M128.127,59l58,105l-116,-0l58,-105Z" style="fill:none;stroke:#fff;stroke-width:16px;"/><path d="M128.127,23.927l-0,35.073" style="fill:none;stroke:#fff;stroke-width:16px;"/><path d="M186.127,164l31.634,15" style="fill:none;stroke:#fff;stroke-width:16px;"/><path d="M70.127,164l-31.634,15" style="fill:none;stroke:#fff;stroke-width:16px;"/><path d="M128.127,59l-89.634,14l36,91" style="fill:none;stroke:#fff;stroke-opacity:0.37;stroke-width:16px;"/><path d="M186.127,164l31.634,-88l-89.634,-17" style="fill:none;stroke:#fff;stroke-opacity:0.37;stroke-width:16px;"/><path d="M186.127,164l-58,66.927l-58,-66.927" style="fill:none;stroke:#fff;stroke-opacity:0.37;stroke-width:16px;"/></g></g></g></svg>