<?xml version="1.0" encoding="UTF-8" standalone="no"?><!DOCTYPE svg PUBLIC "-//W3C//DTD SVG 1.1//EN" "http://www.w3.org/Graphics/SVG/1.1/DTD/svg11.dtd"><svg width="100%" height="100%" viewBox="0 0 1024 1024" version="1.1" xmlns="http://www.w3.org/2000/svg" xmlns:xlink="http://www.w3.org/1999/xlink" xml:space="preserve" xmlns:serif="http://www.serif.com/" style="fill-rule:evenodd;clip-rule:evenodd;stroke-miterlimit:1.5;"><rect id="Magazine1" x="0" y="0" width="1024" height="1024" style="fill:none;"/><clipPath id="_clip1"><rect x="0" y="0" width="1024" height="1024"/></clipPath><g clip-path="url(#_clip1)"><g><g><circle cx="512" cy="511.937" r="133" style="fill:none;stroke:#fff;stroke-opacity:0.27;stroke-width:16px;"/><circle cx="512" cy="511.937" r="109" style="fill:none;stroke:#fff;stroke-opacity:0.27;stroke-width:16px;"/><circle cx="512" cy="511.937" r="36" style="fill:none;stroke:#fff;stroke-opacity:0.27;stroke-width:16px;"/><path d="M99.977,512c0,-78.646 -15.307,-155.97 24.016,-224.079c39.323,-68.11 113.878,-93.498 181.987,-132.821c68.11,-39.323 127.374,-91.195 206.02,-91.195c78.646,-0 137.91,51.872 206.02,91.195c68.109,39.323 142.664,64.711 181.987,132.821c39.323,68.109 24.016,145.433 24.016,224.079c-0,78.646 15.307,155.843 -24.016,223.952c-39.323,68.11 -113.878,93.498 -181.987,132.821c-68.11,39.323 -127.374,91.195 -206.02,91.195c-78.646,0 -137.91,-51.872 -206.02,-91.195c-68.109,-39.323 -142.664,-64.711 -181.987,-132.821c-39.323,-68.109 -24.016,-145.306 -24.016,-223.952Z" style="fill:none;stroke:#fff;stroke-width:16px;stroke-linejoin:round;"/><circle cx="512" cy="225.897" r="126" style="fill:none;stroke:#fff;stroke-width:16px;"/><circle cx="512" cy="797.976" r="126" style="fill:none;stroke:#fff;stroke-width:16px;"/><path d="M868.837,305.917c34.77,60.224 14.105,137.348 -46.119,172.119c-60.225,34.77 -137.349,14.105 -172.12,-46.119c-34.77,-60.225 -14.105,-137.349 46.12,-172.12c60.224,-34.77 137.348,-14.105 172.119,46.12Z" style="fill:none;stroke:#fff;stroke-width:16px;"/><path d="M155.163,717.956c-34.771,-60.224 -14.105,-137.348 46.119,-172.119c60.225,-34.77 137.349,-14.105 172.12,46.119c34.77,60.225 14.105,137.349 -46.12,172.12c-60.224,34.77 -137.348,14.105 -172.119,-46.12Z" style="fill:none;stroke:#fff;stroke-width:16px;"/><path d="M868.837,717.956c-34.771,60.225 -111.895,80.89 -172.119,46.12c-60.225,-34.771 -80.89,-111.895 -46.12,-172.12c34.771,-60.224 111.895,-80.889 172.12,-46.119c60.224,34.771 80.889,111.895 46.119,172.119Z" style="fill:none;stroke:#fff;stroke-width:16px;"/><path d="M155.163,305.917c34.771,-60.225 111.895,-80.89 172.119,-46.12c60.225,34.771 80.89,111.895 46.12,172.12c-34.771,60.224 -111.895,80.889 -172.12,46.119c-60.224,-34.771 -80.89,-111.895 -46.119,-172.119Z" style="fill:none;stroke:#fff;stroke-width:16px;"/></g><g><circle cx="512" cy="511.937" r="133" style="fill:none;stroke:#fff;stroke-opacity:0.27;stroke-width:16px;"/><circle cx="512" cy="511.937" r="109" style="fill:none;stroke:#fff;stroke-opacity:0.27;stroke-width:16px;"/><circle cx="512" cy="511.937" r="36" style="fill:none;stroke:#fff;stroke-opacity:0.27;stroke-width:16px;"/><path d="M99.977,512c0,-78.646 -15.307,-155.97 24.016,-224.079c39.323,-68.11 113.878,-93.498 181.987,-132.821c68.11,-39.323 127.374,-91.195 206.02,-91.195c78.646,-0 137.91,51.872 206.02,91.195c68.109,39.323 142.664,64.711 181.987,132.821c39.323,68.109 24.016,145.433 24.016,224.079c-0,78.646 15.307,155.843 -24.016,223.952c-39.323,68.11 -113.878,93.498 -181.987,132.821c-68.11,39.323 -127.374,91.195 -206.02,91.195c-78.646,0 -137.91,-51.872 -206.02,-91.195c-68.109,-39.323 -142.664,-64.711 -181.987,-132.821c-39.323,-68.109 -24.016,-145.306 -24.016,-223.952Z" style="fill:none;stroke:#fff;stroke-width:16px;stroke-linejoin:round;"/><circle cx="512" cy="225.897" r="126" style="fill:none;stroke:#fff;stroke-width:16px;"/><circle cx="512" cy="797.976" r="126" style="fill:none;stroke:#fff;stroke-width:16px;"/><path d="M868.837,305.917c34.77,60.224 14.105,137.348 -46.119,172.119c-60.225,34.77 -137.349,14.105 -172.12,-46.119c-34.77,-60.225 -14.105,-137.349 46.12,-172.12c60.224,-34.77 137.348,-14.105 172.119,46.12Z" style="fill:none;stroke:#fff;stroke-width:16px;"/><path d="M155.163,717.956c-34.771,-60.224 -14.105,-137.348 46.119,-172.119c60.225,-34.77 137.349,-14.105 172.12,46.119c34.77,60.225 14.105,137.349 -46.12,172.12c-60.224,34.77 -137.348,14.105 -172.119,-46.12Z" style="fill:none;stroke:#fff;stroke-width:16px;"/><path d="M868.837,717.956c-34.771,60.225 -111.895,80.89 -172.119,46.12c-60.225,-34.771 -80.89,-111.895 -46.12,-172.12c34.771,-60.224 111.895,-80.889 172.12,-46.119c60.224,34.771 80.889,111.895 46.119,172.119Z" style="fill:none;stroke:#fff;stroke-width:16px;"/><path d="M155.163,305.917c34.771,-60.225 111.895,-80.89 172.119,-46.12c60.225,34.771 80.89,111.895 46.12,172.12c-34.771,60.224 -111.895,80.889 -172.12,46.119c-60.224,-34.771 -80.89,-111.895 -46.119,-172.119Z" style="fill:none;stroke:#fff;stroke-width:16px;"/></g></g></g></svg>