<?xml version="1.0" encoding="UTF-8" standalone="no"?><!DOCTYPE svg PUBLIC "-//W3C//DTD SVG 1.1//EN" "http://www.w3.org/Graphics/SVG/1.1/DTD/svg11.dtd"><svg width="100%" height="100%" viewBox="0 0 1024 2048" version="1.1" xmlns="http://www.w3.org/2000/svg" xmlns:xlink="http://www.w3.org/1999/xlink" xml:space="preserve" xmlns:serif="http://www.serif.com/" style="fill-rule:evenodd;clip-rule:evenodd;stroke-linejoin:round;stroke-miterlimit:1.5;"><rect id="Magazine-2" serif:id="Magazine 2" x="0" y="0" width="1024" height="2048" style="fill:none;"/><path d="M458,140l355.2,0l84.8,84.8l0,1637.09l-772,0l0,-1552.29l169.6,-169.6l70.4,0l-0,1508l92,-99l-0,-1409Z"/><g><g><path d="M458,140l355.2,0l84.8,84.8l0,1637.09l-772,0l0,-1552.29l169.6,-169.6l70.4,0l-0,1508l92,-99l-0,-1409Z" style="fill:none;stroke:#fff;stroke-width:16px;"/><rect x="78" y="1861.89" width="868" height="111.106" style="fill:none;stroke:#fff;stroke-width:16px;"/><path d="M813,140l0,1721.89" style="fill:none;stroke:#fff;stroke-opacity:0.2;stroke-width:16px;"/><path d="M295,140l0,1721.89" style="fill:none;stroke:#fff;stroke-opacity:0.2;stroke-width:16px;"/></g><g><path d="M458,140l355.2,0l84.8,84.8l0,1637.09l-772,0l0,-1552.29l169.6,-169.6l70.4,0l-0,1508l92,-99l-0,-1409Z" style="fill:none;stroke:#fff;stroke-width:16px;"/><rect x="78" y="1861.89" width="868" height="111.106" style="fill:none;stroke:#fff;stroke-width:16px;"/><path d="M813,140l0,1721.89" style="fill:none;stroke:#fff;stroke-opacity:0.2;stroke-width:16px;"/><path d="M295,140l0,1721.89" style="fill:none;stroke:#fff;stroke-opacity:0.2;stroke-width:16px;"/></g></g></svg>