<?xml version="1.0" encoding="UTF-8" standalone="no"?><!DOCTYPE svg PUBLIC "-//W3C//DTD SVG 1.1//EN" "http://www.w3.org/Graphics/SVG/1.1/DTD/svg11.dtd"><svg width="100%" height="100%" viewBox="0 0 1025 1024" version="1.1" xmlns="http://www.w3.org/2000/svg" xmlns:xlink="http://www.w3.org/1999/xlink" xml:space="preserve" xmlns:serif="http://www.serif.com/" style="fill-rule:evenodd;clip-rule:evenodd;stroke-linecap:round;stroke-linejoin:round;stroke-miterlimit:1.5;"><rect id="PatternPsyc" x="0.127" y="0" width="1024" height="1024" style="fill:none;"/><clipPath id="_clip1"><rect x="0.127" y="0" width="1024" height="1024"/></clipPath><g clip-path="url(#_clip1)"><g opacity="0.35"><rect x="0.127" y="-0" width="1024" height="1024" style="fill:#9e00ff;fill-opacity:0.15;"/><g opacity="0.3"><g><g><clipPath id="_clip2"><rect x="0.127" y="0" width="1024" height="1024"/></clipPath><g clip-path="url(#_clip2)"><g><path d="M-327.105,204.127c139.447,40.68 61.069,-22.885 226.939,-29.343c232.37,-9.047 353.099,107.146 249.979,-38.33c-64.372,-90.813 199.147,-140.091 259.555,15.332c0.327,0.839 24.169,135.215 150.678,106.604c92.858,-21.001 101.536,-244.831 325.769,-162.922c81.09,29.62 158.161,72.239 221.977,-32.823" style="fill:none;stroke:#e900ff;stroke-width:18.65px;"/><path d="M-72.491,441.716c244.675,-375.19 110.579,80.924 242.144,-72.348c77.842,-90.686 92.123,96.138 46.993,124.645c-2.957,1.868 -129.095,14.525 -132.336,103.694c-3.28,90.235 170.218,-120.993 152.518,85.923c-10.146,118.614 161.142,-87.444 150.351,-157.135c-0.806,-5.204 -63.432,-184.466 99.178,-195.406c133.409,-8.976 121.8,226.891 348.451,93.968c39.071,-22.914 137.844,-184.977 248.387,-179.577c55.352,2.704 69.478,115.102 86.455,74.274c35.958,-86.476 87.339,5.641 135.287,44.671" style="fill:none;stroke:#e900ff;stroke-width:18.65px;"/><path d="M1061.76,670.199c-160.857,44.41 -310.811,-20.386 -229.286,-84.603c128.273,-101.038 -164.287,-107.167 -179.088,-24.39c-15.447,86.389 141.643,151.951 167.427,171.87c78.943,60.984 91.765,47.927 242.415,52.217" style="fill:none;stroke:#e900ff;stroke-width:18.65px;"/><path d="M576.701,770.897c69.807,-54.754 36.033,-257.808 -67.828,-266.406c-139.754,-11.57 -46.059,272.731 -45.882,329.277c0.556,178.262 -257.852,155.03 -324.575,151.057c-220.423,-13.128 -272.984,-54.011 -391.88,15.4" style="fill:none;stroke:#e900ff;stroke-width:18.65px;"/><path d="M669.969,724.249c374.291,239.202 114.183,136.356 -44.904,319.737c-164.179,189.251 60.705,51.864 -59.521,190.652c-79.739,92.051 -161.811,-134.655 -152.876,-164.2c53.177,-175.831 157.38,-96.543 160.385,-159.973c5.93,-125.172 -133.731,-114.992 -52.153,-296.671" style="fill:none;stroke:#e900ff;stroke-width:18.65px;"/><path d="M366.911,821.41c-10.085,13.387 -99.215,131.703 -173.243,111.474c-79.286,-21.665 3.494,-71.64 8.458,-74.636" style="fill:none;stroke:#e900ff;stroke-width:18.65px;"/><path d="M327.988,185.468c-40.29,-63.475 -167.83,95.935 -75.274,75.769c80.141,-17.461 152.973,24.059 90.885,104.004c-21.091,27.157 -77.234,71.05 -18.977,193.169" style="fill:none;stroke:#e900ff;stroke-width:18.65px;"/><path d="M720.639,256.257c85.303,43.422 238.702,-58.525 212.01,-2.007c-27.926,59.132 -61.706,71.116 -139.783,91.309c-108.118,27.963 -18.131,-83.501 -139.685,0.985c-20.41,14.186 -67.373,-47.625 -106.032,-46.872" style="fill:none;stroke:#e900ff;stroke-width:18.65px;"/><path d="M32.848,885.54c27.282,6.033 120.572,-26.287 123.278,-75.971c4.23,-77.669 -92.735,-83.535 -93.918,-83.768" style="fill:none;stroke:#e900ff;stroke-width:18.65px;"/></g><g><path d="M684.632,204.127c139.446,40.68 61.068,-22.885 226.939,-29.343c232.37,-9.047 353.098,107.146 249.979,-38.33c-64.373,-90.813 199.147,-140.091 259.555,15.332c0.326,0.839 24.169,135.215 150.678,106.604c92.857,-21.001 101.535,-244.831 325.769,-162.922c81.089,29.62 158.16,72.239 221.976,-32.823" style="fill:none;stroke:#e900ff;stroke-width:18.65px;"/><path d="M939.246,441.716c244.675,-375.19 110.579,80.924 242.144,-72.348c77.842,-90.686 92.123,96.138 46.992,124.645c-2.957,1.868 -129.095,14.525 -132.336,103.694c-3.279,90.235 170.218,-120.993 152.518,85.923c-10.146,118.614 161.142,-87.444 150.352,-157.135c-0.806,-5.204 -63.433,-184.466 99.178,-195.406c133.408,-8.976 121.799,226.891 348.451,93.968c39.071,-22.914 137.843,-184.977 248.386,-179.577c55.353,2.704 69.479,115.102 86.456,74.274c35.958,-86.476 87.339,5.641 135.287,44.671" style="fill:none;stroke:#e900ff;stroke-width:18.65px;"/><path d="M1588.44,770.897c69.806,-54.754 36.033,-257.808 -67.828,-266.406c-139.754,-11.57 -46.059,272.731 -45.883,329.277c0.557,178.262 -257.852,155.03 -324.574,151.057c-220.424,-13.128 -272.984,-54.011 -391.88,15.4" style="fill:none;stroke:#e900ff;stroke-width:18.65px;"/></g><g><path d="M-1338.84,204.127c139.446,40.68 61.068,-22.885 226.939,-29.343c232.37,-9.047 353.098,107.146 249.979,-38.33c-64.373,-90.813 199.147,-140.091 259.555,15.332c0.326,0.839 24.169,135.215 150.678,106.604c92.857,-21.001 101.535,-244.831 325.769,-162.922c81.089,29.62 158.16,72.239 221.976,-32.823" style="fill:none;stroke:#e900ff;stroke-width:18.65px;"/><path d="M-1084.23,441.716c244.675,-375.19 110.579,80.924 242.143,-72.348c77.843,-90.686 92.124,96.138 46.993,124.645c-2.957,1.868 -129.095,14.525 -132.336,103.694c-3.279,90.235 170.218,-120.993 152.518,85.923c-10.146,118.614 161.142,-87.444 150.352,-157.135c-0.806,-5.204 -63.433,-184.466 99.178,-195.406c133.408,-8.976 121.799,226.891 348.451,93.968c39.071,-22.914 137.843,-184.977 248.386,-179.577c55.352,2.704 69.479,115.102 86.456,74.274c35.958,-86.476 87.339,5.641 135.287,44.671" style="fill:none;stroke:#e900ff;stroke-width:18.65px;"/><path d="M50.023,670.199c-160.858,44.41 -310.812,-20.386 -229.286,-84.603c128.273,-101.038 -164.288,-107.167 -179.089,-24.39c-15.446,86.389 141.643,151.951 167.428,171.87c78.942,60.984 91.765,47.927 242.414,52.217" style="fill:none;stroke:#e900ff;stroke-width:18.65px;"/></g><g><path d="M669.969,-303.204c374.291,239.201 114.183,136.355 -44.904,319.736c-65.811,75.861 -21.817,67.204 -19.323,118.541c1.725,35.485 -48.6,51.538 -76.115,61.111c-51.004,17.746 -125.894,-123.655 -116.959,-153.199c53.177,-175.832 157.38,-96.543 160.385,-159.973c5.93,-125.172 -133.731,-114.992 -52.153,-296.672" style="fill:none;stroke:#e900ff;stroke-width:18.65px;"/></g></g></g><circle cx="492.377" cy="427.75" r="49.75" style="fill:none;stroke:#e900ff;stroke-width:18.65px;stroke-linecap:butt;stroke-linejoin:miter;"/><circle cx="951.377" cy="586.75" r="49.75" style="fill:none;stroke:#e900ff;stroke-width:18.65px;stroke-linecap:butt;stroke-linejoin:miter;"/><circle cx="273.377" cy="795.75" r="49.75" style="fill:none;stroke:#e900ff;stroke-width:18.65px;stroke-linecap:butt;stroke-linejoin:miter;"/><circle cx="682.377" cy="865.75" r="49.75" style="fill:none;stroke:#e900ff;stroke-width:18.65px;stroke-linecap:butt;stroke-linejoin:miter;"/><circle cx="65.127" cy="460.25" r="32.5" style="fill:none;stroke:#e900ff;stroke-width:18.65px;stroke-linecap:butt;stroke-linejoin:miter;"/><circle cx="497.127" cy="64.25" r="32.5" style="fill:none;stroke:#e900ff;stroke-width:18.65px;stroke-linecap:butt;stroke-linejoin:miter;"/></g><g><g><clipPath id="_clip3"><rect x="0.127" y="0" width="1024" height="1024"/></clipPath><g clip-path="url(#_clip3)"><g><path d="M-327.105,204.127c139.447,40.68 61.069,-22.885 226.939,-29.343c232.37,-9.047 353.099,107.146 249.979,-38.33c-64.372,-90.813 199.147,-140.091 259.555,15.332c0.327,0.839 24.169,135.215 150.678,106.604c92.858,-21.001 101.536,-244.831 325.769,-162.922c81.09,29.62 158.161,72.239 221.977,-32.823" style="fill:none;stroke:#e900ff;stroke-width:18.65px;"/><path d="M-72.491,441.716c244.675,-375.19 110.579,80.924 242.144,-72.348c77.842,-90.686 92.123,96.138 46.993,124.645c-2.957,1.868 -129.095,14.525 -132.336,103.694c-3.28,90.235 170.218,-120.993 152.518,85.923c-10.146,118.614 161.142,-87.444 150.351,-157.135c-0.806,-5.204 -63.432,-184.466 99.178,-195.406c133.409,-8.976 121.8,226.891 348.451,93.968c39.071,-22.914 137.844,-184.977 248.387,-179.577c55.352,2.704 69.478,115.102 86.455,74.274c35.958,-86.476 87.339,5.641 135.287,44.671" style="fill:none;stroke:#e900ff;stroke-width:18.65px;"/><path d="M1061.76,670.199c-160.857,44.41 -310.811,-20.386 -229.286,-84.603c128.273,-101.038 -164.287,-107.167 -179.088,-24.39c-15.447,86.389 141.643,151.951 167.427,171.87c78.943,60.984 91.765,47.927 242.415,52.217" style="fill:none;stroke:#e900ff;stroke-width:18.65px;"/><path d="M576.701,770.897c69.807,-54.754 36.033,-257.808 -67.828,-266.406c-139.754,-11.57 -46.059,272.731 -45.882,329.277c0.556,178.262 -257.852,155.03 -324.575,151.057c-220.423,-13.128 -272.984,-54.011 -391.88,15.4" style="fill:none;stroke:#e900ff;stroke-width:18.65px;"/><path d="M669.969,724.249c374.291,239.202 114.183,136.356 -44.904,319.737c-164.179,189.251 60.705,51.864 -59.521,190.652c-79.739,92.051 -161.811,-134.655 -152.876,-164.2c53.177,-175.831 157.38,-96.543 160.385,-159.973c5.93,-125.172 -133.731,-114.992 -52.153,-296.671" style="fill:none;stroke:#e900ff;stroke-width:18.65px;"/><path d="M366.911,821.41c-10.085,13.387 -99.215,131.703 -173.243,111.474c-79.286,-21.665 3.494,-71.64 8.458,-74.636" style="fill:none;stroke:#e900ff;stroke-width:18.65px;"/><path d="M327.988,185.468c-40.29,-63.475 -167.83,95.935 -75.274,75.769c80.141,-17.461 152.973,24.059 90.885,104.004c-21.091,27.157 -77.234,71.05 -18.977,193.169" style="fill:none;stroke:#e900ff;stroke-width:18.65px;"/><path d="M720.639,256.257c85.303,43.422 238.702,-58.525 212.01,-2.007c-27.926,59.132 -61.706,71.116 -139.783,91.309c-108.118,27.963 -18.131,-83.501 -139.685,0.985c-20.41,14.186 -67.373,-47.625 -106.032,-46.872" style="fill:none;stroke:#e900ff;stroke-width:18.65px;"/><path d="M32.848,885.54c27.282,6.033 120.572,-26.287 123.278,-75.971c4.23,-77.669 -92.735,-83.535 -93.918,-83.768" style="fill:none;stroke:#e900ff;stroke-width:18.65px;"/></g><g><path d="M684.632,204.127c139.446,40.68 61.068,-22.885 226.939,-29.343c232.37,-9.047 353.098,107.146 249.979,-38.33c-64.373,-90.813 199.147,-140.091 259.555,15.332c0.326,0.839 24.169,135.215 150.678,106.604c92.857,-21.001 101.535,-244.831 325.769,-162.922c81.089,29.62 158.16,72.239 221.976,-32.823" style="fill:none;stroke:#e900ff;stroke-width:18.65px;"/><path d="M939.246,441.716c244.675,-375.19 110.579,80.924 242.144,-72.348c77.842,-90.686 92.123,96.138 46.992,124.645c-2.957,1.868 -129.095,14.525 -132.336,103.694c-3.279,90.235 170.218,-120.993 152.518,85.923c-10.146,118.614 161.142,-87.444 150.352,-157.135c-0.806,-5.204 -63.433,-184.466 99.178,-195.406c133.408,-8.976 121.799,226.891 348.451,93.968c39.071,-22.914 137.843,-184.977 248.386,-179.577c55.353,2.704 69.479,115.102 86.456,74.274c35.958,-86.476 87.339,5.641 135.287,44.671" style="fill:none;stroke:#e900ff;stroke-width:18.65px;"/><path d="M1588.44,770.897c69.806,-54.754 36.033,-257.808 -67.828,-266.406c-139.754,-11.57 -46.059,272.731 -45.883,329.277c0.557,178.262 -257.852,155.03 -324.574,151.057c-220.424,-13.128 -272.984,-54.011 -391.88,15.4" style="fill:none;stroke:#e900ff;stroke-width:18.65px;"/></g><g><path d="M-1338.84,204.127c139.446,40.68 61.068,-22.885 226.939,-29.343c232.37,-9.047 353.098,107.146 249.979,-38.33c-64.373,-90.813 199.147,-140.091 259.555,15.332c0.326,0.839 24.169,135.215 150.678,106.604c92.857,-21.001 101.535,-244.831 325.769,-162.922c81.089,29.62 158.16,72.239 221.976,-32.823" style="fill:none;stroke:#e900ff;stroke-width:18.65px;"/><path d="M-1084.23,441.716c244.675,-375.19 110.579,80.924 242.143,-72.348c77.843,-90.686 92.124,96.138 46.993,124.645c-2.957,1.868 -129.095,14.525 -132.336,103.694c-3.279,90.235 170.218,-120.993 152.518,85.923c-10.146,118.614 161.142,-87.444 150.352,-157.135c-0.806,-5.204 -63.433,-184.466 99.178,-195.406c133.408,-8.976 121.799,226.891 348.451,93.968c39.071,-22.914 137.843,-184.977 248.386,-179.577c55.352,2.704 69.479,115.102 86.456,74.274c35.958,-86.476 87.339,5.641 135.287,44.671" style="fill:none;stroke:#e900ff;stroke-width:18.65px;"/><path d="M50.023,670.199c-160.858,44.41 -310.812,-20.386 -229.286,-84.603c128.273,-101.038 -164.288,-107.167 -179.089,-24.39c-15.446,86.389 141.643,151.951 167.428,171.87c78.942,60.984 91.765,47.927 242.414,52.217" style="fill:none;stroke:#e900ff;stroke-width:18.65px;"/></g><g><path d="M669.969,-303.204c374.291,239.201 114.183,136.355 -44.904,319.736c-65.811,75.861 -21.817,67.204 -19.323,118.541c1.725,35.485 -48.6,51.538 -76.115,61.111c-51.004,17.746 -125.894,-123.655 -116.959,-153.199c53.177,-175.832 157.38,-96.543 160.385,-159.973c5.93,-125.172 -133.731,-114.992 -52.153,-296.672" style="fill:none;stroke:#e900ff;stroke-width:18.65px;"/></g></g></g><circle cx="492.377" cy="427.75" r="49.75" style="fill:none;stroke:#e900ff;stroke-width:18.65px;stroke-linecap:butt;stroke-linejoin:miter;"/><circle cx="951.377" cy="586.75" r="49.75" style="fill:none;stroke:#e900ff;stroke-width:18.65px;stroke-linecap:butt;stroke-linejoin:miter;"/><circle cx="273.377" cy="795.75" r="49.75" style="fill:none;stroke:#e900ff;stroke-width:18.65px;stroke-linecap:butt;stroke-linejoin:miter;"/><circle cx="682.377" cy="865.75" r="49.75" style="fill:none;stroke:#e900ff;stroke-width:18.65px;stroke-linecap:butt;stroke-linejoin:miter;"/><circle cx="65.127" cy="460.25" r="32.5" style="fill:none;stroke:#e900ff;stroke-width:18.65px;stroke-linecap:butt;stroke-linejoin:miter;"/><circle cx="497.127" cy="64.25" r="32.5" style="fill:none;stroke:#e900ff;stroke-width:18.65px;stroke-linecap:butt;stroke-linejoin:miter;"/></g></g></g></g></svg>