<?xml version="1.0" encoding="UTF-8" standalone="no"?><!DOCTYPE svg PUBLIC "-//W3C//DTD SVG 1.1//EN" "http://www.w3.org/Graphics/SVG/1.1/DTD/svg11.dtd"><svg width="100%" height="100%" viewBox="0 0 512 512" version="1.1" xmlns="http://www.w3.org/2000/svg" xmlns:xlink="http://www.w3.org/1999/xlink" xml:space="preserve" xmlns:serif="http://www.serif.com/" style="fill-rule:evenodd;clip-rule:evenodd;stroke-linejoin:round;stroke-miterlimit:1.5;"><rect id="PatternNerv" x="-0" y="0" width="512" height="512" style="fill:none;"/><clipPath id="_clip1"><rect x="-0" y="0" width="512" height="512"/></clipPath><g clip-path="url(#_clip1)"><g opacity="0.35"><rect x="-0" y="-0" width="512" height="512" style="fill:#ff9d00;fill-opacity:0.15;"/><g opacity="0.3"><g><path d="M127.379,0l-0,191.758" style="fill:none;stroke:#c79f00;stroke-width:24.48px;"/><path d="M127.379,320.082l-0,191.918" style="fill:none;stroke:#c79f00;stroke-width:24.48px;"/><path d="M384.379,-0l-0,191.758" style="fill:none;stroke:#c79f00;stroke-width:24.48px;"/><path d="M512,128l-0,257.758" style="fill:none;stroke:#c79f00;stroke-width:24.48px;"/><path d="M1,128l-0,257.758" style="fill:none;stroke:#c79f00;stroke-width:24.48px;"/><path d="M384.379,320.082l-0,191.918" style="fill:none;stroke:#c79f00;stroke-width:24.48px;"/><path d="M384,191.758l128,64.162l-128,64.162l-128,-64.162l128,-64.162Z" style="fill:none;stroke:#c79f00;stroke-width:24.48px;"/><path d="M128,191.758l128,64.162l-128,64.162l-128,-64.162l128,-64.162Z" style="fill:none;stroke:#c79f00;stroke-width:24.48px;"/><path d="M256.379,383.676l128,64.162l-128,64.162l-128,-64.162l128,-64.162Z" style="fill:none;stroke:#c79f00;stroke-width:24.48px;"/><path d="M512,383.676l128,64.162l-128,64.162l-128,-64.162l128,-64.162Z" style="fill:none;stroke:#c79f00;stroke-width:24.48px;"/><path d="M0.379,383.676l128,64.162l-128,64.162l-128,-64.162l128,-64.162Z" style="fill:none;stroke:#c79f00;stroke-width:24.48px;"/><path d="M256.379,-0l128,64.162l-128,64.162l-128,-64.162l128,-64.162Z" style="fill:none;stroke:#c79f00;stroke-width:24.48px;"/><path d="M512,0l128,64.162l-128,64.162l-128,-64.162l128,-64.162Z" style="fill:none;stroke:#c79f00;stroke-width:24.48px;"/><path d="M0.379,0l128,64.162l-128,64.162l-128,-64.162l128,-64.162Z" style="fill:none;stroke:#c79f00;stroke-width:24.48px;"/><path d="M256,128.461l-0,254.918" style="fill:none;stroke:#c79f00;stroke-width:24.48px;"/></g><g><path d="M127.379,0l-0,191.758" style="fill:none;stroke:#c79f00;stroke-width:24.48px;"/><path d="M127.379,320.082l-0,191.918" style="fill:none;stroke:#c79f00;stroke-width:24.48px;"/><path d="M384.379,-0l-0,191.758" style="fill:none;stroke:#c79f00;stroke-width:24.48px;"/><path d="M512,128l-0,257.758" style="fill:none;stroke:#c79f00;stroke-width:24.48px;"/><path d="M1,128l-0,257.758" style="fill:none;stroke:#c79f00;stroke-width:24.48px;"/><path d="M384.379,320.082l-0,191.918" style="fill:none;stroke:#c79f00;stroke-width:24.48px;"/><path d="M384,191.758l128,64.162l-128,64.162l-128,-64.162l128,-64.162Z" style="fill:none;stroke:#c79f00;stroke-width:24.48px;"/><path d="M128,191.758l128,64.162l-128,64.162l-128,-64.162l128,-64.162Z" style="fill:none;stroke:#c79f00;stroke-width:24.48px;"/><path d="M256.379,383.676l128,64.162l-128,64.162l-128,-64.162l128,-64.162Z" style="fill:none;stroke:#c79f00;stroke-width:24.48px;"/><path d="M512,383.676l128,64.162l-128,64.162l-128,-64.162l128,-64.162Z" style="fill:none;stroke:#c79f00;stroke-width:24.48px;"/><path d="M0.379,383.676l128,64.162l-128,64.162l-128,-64.162l128,-64.162Z" style="fill:none;stroke:#c79f00;stroke-width:24.48px;"/><path d="M256.379,-0l128,64.162l-128,64.162l-128,-64.162l128,-64.162Z" style="fill:none;stroke:#c79f00;stroke-width:24.48px;"/><path d="M512,0l128,64.162l-128,64.162l-128,-64.162l128,-64.162Z" style="fill:none;stroke:#c79f00;stroke-width:24.48px;"/><path d="M0.379,0l128,64.162l-128,64.162l-128,-64.162l128,-64.162Z" style="fill:none;stroke:#c79f00;stroke-width:24.48px;"/><path d="M256,128.461l-0,254.918" style="fill:none;stroke:#c79f00;stroke-width:24.48px;"/></g></g></g></g></svg>