<?xml version="1.0" encoding="UTF-8" standalone="no"?><!DOCTYPE svg PUBLIC "-//W3C//DTD SVG 1.1//EN" "http://www.w3.org/Graphics/SVG/1.1/DTD/svg11.dtd"><svg width="100%" height="100%" viewBox="0 0 1025 1025" version="1.1" xmlns="http://www.w3.org/2000/svg" xmlns:xlink="http://www.w3.org/1999/xlink" xml:space="preserve" xmlns:serif="http://www.serif.com/" style="fill-rule:evenodd;clip-rule:evenodd;stroke-miterlimit:1.5;"><rect id="PatternMind" x="-0" y="0" width="1024.13" height="1024.13" style="fill:none;"/><clipPath id="_clip1"><rect x="-0" y="0" width="1024.13" height="1024.13"/></clipPath><g clip-path="url(#_clip1)"><g opacity="0.35"><rect x="-0" y="0" width="1024.13" height="1024.13" style="fill:#00a6ff;fill-opacity:0.15;"/><g opacity="0.3"><g><g><clipPath id="_clip2"><rect x="-0.016" y="0.016" width="1024.17" height="1024.05"/></clipPath><g clip-path="url(#_clip2)"><g><path d="M2036.07,1028.21l-175.638,-313.295l22.318,231.627l-358.768,189.549l-168.651,98.217l-220.78,-379.993l54.41,473.679l-336.518,212.24l671.539,-0l-334.236,215.758l167.094,94.921l-7.642,407.442l509.021,-515.244l177.851,84.571l-343.436,-374.396l509.021,-100.058l-165.585,-129.861l-0,-195.157Z" style="fill:none;stroke:#3772c0;stroke-width:19.71px;"/></g><g><path d="M1024.16,0.016l-175.638,-313.295l22.318,231.627l-358.768,189.549l-168.651,98.217l-220.78,-379.993l57.369,499.441l-339.477,186.478l671.539,-0l-334.236,215.758l167.094,94.921l-7.642,407.442l509.021,-515.244l177.851,84.571l-343.436,-374.396l509.021,-100.058l-165.585,-129.861l-0,-195.157Z" style="fill:none;stroke:#3772c0;stroke-width:19.71px;"/><path d="M343.42,206.114l-0,218.978l680.739,-425.076" style="fill:none;stroke:#3772c0;stroke-width:19.71px;"/><path d="M343.42,425.092l171.718,86.948" style="fill:none;stroke:#3772c0;stroke-width:19.71px;"/><path d="M515.138,512.04l-171.718,318.807" style="fill:none;stroke:#3772c0;stroke-width:19.71px;"/><path d="M1024.16,792.204l165.585,-280.164" style="fill:none;stroke:#3772c0;stroke-width:19.71px;"/><path d="M515.138,512.04l331.17,202.877" style="fill:none;stroke:#3772c0;stroke-width:19.71px;"/></g><g><path d="M1024.16,-1017.59l-175.638,-313.295l22.318,231.627l-358.768,189.549l-168.651,98.216l-220.78,-379.992l54.41,473.679l-336.518,212.24l671.539,-0l-334.236,215.758l167.094,94.921l-7.642,407.442l509.021,-515.244l177.851,84.571l-343.436,-374.396l509.021,-100.058l-165.585,-129.861l-0,-195.157Z" style="fill:none;stroke:#3772c0;stroke-width:19.71px;"/></g><g><path d="M1024.16,1028.21l-175.638,-313.295l22.318,231.627l-358.768,189.549l-168.651,98.217l-220.78,-379.993l54.41,473.679l-336.518,212.24l671.539,-0l-334.236,215.758l167.094,94.921l-7.642,407.442l509.021,-515.244l177.851,84.571l-343.436,-374.396l509.021,-100.058l-165.585,-129.861l-0,-195.157Z" style="fill:none;stroke:#3772c0;stroke-width:19.71px;"/><path d="M343.42,1234.31l-0,218.978l680.739,-425.076" style="fill:none;stroke:#3772c0;stroke-width:19.71px;"/></g><g><path d="M6.117,0.016l-175.637,-313.295l22.317,231.627l-358.767,189.549l-168.652,98.217l-220.78,-379.993l54.41,473.679l-336.518,212.24l671.54,-0l-334.237,215.758l167.094,94.921l-7.642,407.442l509.021,-515.244l177.851,84.571l-343.436,-374.396l509.021,-100.058l-165.585,-129.861l-0,-195.157Z" style="fill:none;stroke:#3772c0;stroke-width:19.71px;"/><path d="M-674.622,206.114l0,218.978l680.739,-425.076" style="fill:none;stroke:#3772c0;stroke-width:19.71px;"/><path d="M6.117,792.204l165.585,-280.164" style="fill:none;stroke:#3772c0;stroke-width:19.71px;"/></g><g><path d="M6.117,-1017.59l-175.637,-313.295l22.317,231.627l-358.767,189.549l-168.652,98.216l-220.78,-379.992l54.41,473.679l-336.518,212.24l671.54,-0l-334.237,215.758l167.094,94.921l-7.642,407.442l509.021,-515.244l177.851,84.571l-343.436,-374.396l509.021,-100.058l-165.585,-129.861l-0,-195.157Z" style="fill:none;stroke:#3772c0;stroke-width:19.71px;"/></g><g><path d="M6.117,1028.21l-175.637,-313.295l22.317,231.627l-358.767,189.549l-168.652,98.217l-220.78,-379.993l54.41,473.679l-336.518,212.24l671.54,-0l-334.237,215.758l167.094,94.921l-7.642,407.442l509.021,-515.244l177.851,84.571l-343.436,-374.396l509.021,-100.058l-165.585,-129.861l-0,-195.157Z" style="fill:none;stroke:#3772c0;stroke-width:19.71px;"/><path d="M-674.622,1234.31l0,218.978l680.739,-425.076" style="fill:none;stroke:#3772c0;stroke-width:19.71px;"/></g><g><path d="M2036.07,0.016l-175.638,-313.295l22.318,231.627l-358.768,189.549l-168.651,98.217l-220.78,-379.993l54.41,473.679l-336.518,212.24l671.539,-0l-334.236,215.758l167.094,94.921l-7.642,407.442l509.021,-515.244l177.851,84.571l-343.436,-374.396l509.021,-100.058l-165.585,-129.861l-0,-195.157Z" style="fill:none;stroke:#3772c0;stroke-width:19.71px;"/></g><g><path d="M2036.07,-1017.59l-175.638,-313.295l22.318,231.627l-358.768,189.549l-168.651,98.216l-220.78,-379.992l54.41,473.679l-336.518,212.24l671.539,-0l-334.236,215.758l167.094,94.921l-7.642,407.442l509.021,-515.244l177.851,84.571l-343.436,-374.396l509.021,-100.058l-165.585,-129.861l-0,-195.157Z" style="fill:none;stroke:#3772c0;stroke-width:19.71px;"/></g></g></g></g><g><g><clipPath id="_clip3"><rect x="-0.016" y="0.016" width="1024.17" height="1024.05"/></clipPath><g clip-path="url(#_clip3)"><g><path d="M2036.07,1028.21l-175.638,-313.295l22.318,231.627l-358.768,189.549l-168.651,98.217l-220.78,-379.993l54.41,473.679l-336.518,212.24l671.539,-0l-334.236,215.758l167.094,94.921l-7.642,407.442l509.021,-515.244l177.851,84.571l-343.436,-374.396l509.021,-100.058l-165.585,-129.861l-0,-195.157Z" style="fill:none;stroke:#3772c0;stroke-width:19.71px;"/></g><g><path d="M1024.16,0.016l-175.638,-313.295l22.318,231.627l-358.768,189.549l-168.651,98.217l-220.78,-379.993l57.369,499.441l-339.477,186.478l671.539,-0l-334.236,215.758l167.094,94.921l-7.642,407.442l509.021,-515.244l177.851,84.571l-343.436,-374.396l509.021,-100.058l-165.585,-129.861l-0,-195.157Z" style="fill:none;stroke:#3772c0;stroke-width:19.71px;"/><path d="M343.42,206.114l-0,218.978l680.739,-425.076" style="fill:none;stroke:#3772c0;stroke-width:19.71px;"/><path d="M343.42,425.092l171.718,86.948" style="fill:none;stroke:#3772c0;stroke-width:19.71px;"/><path d="M515.138,512.04l-171.718,318.807" style="fill:none;stroke:#3772c0;stroke-width:19.71px;"/><path d="M1024.16,792.204l165.585,-280.164" style="fill:none;stroke:#3772c0;stroke-width:19.71px;"/><path d="M515.138,512.04l331.17,202.877" style="fill:none;stroke:#3772c0;stroke-width:19.71px;"/></g><g><path d="M1024.16,-1017.59l-175.638,-313.295l22.318,231.627l-358.768,189.549l-168.651,98.216l-220.78,-379.992l54.41,473.679l-336.518,212.24l671.539,-0l-334.236,215.758l167.094,94.921l-7.642,407.442l509.021,-515.244l177.851,84.571l-343.436,-374.396l509.021,-100.058l-165.585,-129.861l-0,-195.157Z" style="fill:none;stroke:#3772c0;stroke-width:19.71px;"/></g><g><path d="M1024.16,1028.21l-175.638,-313.295l22.318,231.627l-358.768,189.549l-168.651,98.217l-220.78,-379.993l54.41,473.679l-336.518,212.24l671.539,-0l-334.236,215.758l167.094,94.921l-7.642,407.442l509.021,-515.244l177.851,84.571l-343.436,-374.396l509.021,-100.058l-165.585,-129.861l-0,-195.157Z" style="fill:none;stroke:#3772c0;stroke-width:19.71px;"/><path d="M343.42,1234.31l-0,218.978l680.739,-425.076" style="fill:none;stroke:#3772c0;stroke-width:19.71px;"/></g><g><path d="M6.117,0.016l-175.637,-313.295l22.317,231.627l-358.767,189.549l-168.652,98.217l-220.78,-379.993l54.41,473.679l-336.518,212.24l671.54,-0l-334.237,215.758l167.094,94.921l-7.642,407.442l509.021,-515.244l177.851,84.571l-343.436,-374.396l509.021,-100.058l-165.585,-129.861l-0,-195.157Z" style="fill:none;stroke:#3772c0;stroke-width:19.71px;"/><path d="M-674.622,206.114l0,218.978l680.739,-425.076" style="fill:none;stroke:#3772c0;stroke-width:19.71px;"/><path d="M6.117,792.204l165.585,-280.164" style="fill:none;stroke:#3772c0;stroke-width:19.71px;"/></g><g><path d="M6.117,-1017.59l-175.637,-313.295l22.317,231.627l-358.767,189.549l-168.652,98.216l-220.78,-379.992l54.41,473.679l-336.518,212.24l671.54,-0l-334.237,215.758l167.094,94.921l-7.642,407.442l509.021,-515.244l177.851,84.571l-343.436,-374.396l509.021,-100.058l-165.585,-129.861l-0,-195.157Z" style="fill:none;stroke:#3772c0;stroke-width:19.71px;"/></g><g><path d="M6.117,1028.21l-175.637,-313.295l22.317,231.627l-358.767,189.549l-168.652,98.217l-220.78,-379.993l54.41,473.679l-336.518,212.24l671.54,-0l-334.237,215.758l167.094,94.921l-7.642,407.442l509.021,-515.244l177.851,84.571l-343.436,-374.396l509.021,-100.058l-165.585,-129.861l-0,-195.157Z" style="fill:none;stroke:#3772c0;stroke-width:19.71px;"/><path d="M-674.622,1234.31l0,218.978l680.739,-425.076" style="fill:none;stroke:#3772c0;stroke-width:19.71px;"/></g><g><path d="M2036.07,0.016l-175.638,-313.295l22.318,231.627l-358.768,189.549l-168.651,98.217l-220.78,-379.993l54.41,473.679l-336.518,212.24l671.539,-0l-334.236,215.758l167.094,94.921l-7.642,407.442l509.021,-515.244l177.851,84.571l-343.436,-374.396l509.021,-100.058l-165.585,-129.861l-0,-195.157Z" style="fill:none;stroke:#3772c0;stroke-width:19.71px;"/></g><g><path d="M2036.07,-1017.59l-175.638,-313.295l22.318,231.627l-358.768,189.549l-168.651,98.216l-220.78,-379.992l54.41,473.679l-336.518,212.24l671.539,-0l-334.236,215.758l167.094,94.921l-7.642,407.442l509.021,-515.244l177.851,84.571l-343.436,-374.396l509.021,-100.058l-165.585,-129.861l-0,-195.157Z" style="fill:none;stroke:#3772c0;stroke-width:19.71px;"/></g></g></g></g></g><g><rect x="319.42" y="401.092" width="48" height="48" style="fill:#48b4ef;"/><rect x="478.42" y="496.092" width="48" height="48" style="fill:#48b4ef;"/><rect x="668.945" y="406.655" width="48" height="48" style="fill:#48b4ef;"/><rect x="833.046" y="491.95" width="48" height="48" style="fill:#48b4ef;"/><rect x="319.42" y="178.583" width="48" height="48" style="fill:#48b4ef;"/><rect x="146.975" y="306.526" width="48" height="48" style="fill:#48b4ef;"/><rect x="-23.615" y="166.53" width="48" height="48" style="fill:#48b4ef;"/><rect x="1000.13" y="166.53" width="48" height="48" style="fill:#48b4ef;"/><rect x="823.047" y="698.698" width="48" height="48" style="fill:#48b4ef;"/><rect x="844.37" y="929.552" width="48" height="48" style="fill:#48b4ef;"/><rect x="317.765" y="803.463" width="48" height="48" style="fill:#48b4ef;"/><rect x="162.936" y="710.751" width="48" height="48" style="fill:#48b4ef;"/><rect x="148.102" y="492.877" width="48" height="48" style="fill:#48b4ef;"/><rect x="98.037" y="840.548" width="48" height="48" style="fill:#48b4ef;"/></g><g><rect x="319.42" y="401.092" width="48" height="48" style="fill:#48b4ef;"/><rect x="478.42" y="496.092" width="48" height="48" style="fill:#48b4ef;"/><rect x="668.945" y="406.655" width="48" height="48" style="fill:#48b4ef;"/><rect x="833.046" y="491.95" width="48" height="48" style="fill:#48b4ef;"/><rect x="319.42" y="178.583" width="48" height="48" style="fill:#48b4ef;"/><rect x="146.975" y="306.526" width="48" height="48" style="fill:#48b4ef;"/><rect x="-23.615" y="166.53" width="48" height="48" style="fill:#48b4ef;"/><rect x="1000.13" y="166.53" width="48" height="48" style="fill:#48b4ef;"/><rect x="823.047" y="698.698" width="48" height="48" style="fill:#48b4ef;"/><rect x="844.37" y="929.552" width="48" height="48" style="fill:#48b4ef;"/><rect x="317.765" y="803.463" width="48" height="48" style="fill:#48b4ef;"/><rect x="162.936" y="710.751" width="48" height="48" style="fill:#48b4ef;"/><rect x="148.102" y="492.877" width="48" height="48" style="fill:#48b4ef;"/><rect x="98.037" y="840.548" width="48" height="48" style="fill:#48b4ef;"/></g></g></g></svg>