<?xml version="1.0" encoding="UTF-8" standalone="no"?><!DOCTYPE svg PUBLIC "-//W3C//DTD SVG 1.1//EN" "http://www.w3.org/Graphics/SVG/1.1/DTD/svg11.dtd"><svg width="100%" height="100%" viewBox="0 0 512 512" version="1.1" xmlns="http://www.w3.org/2000/svg" xmlns:xlink="http://www.w3.org/1999/xlink" xml:space="preserve" xmlns:serif="http://www.serif.com/" style="fill-rule:evenodd;clip-rule:evenodd;stroke-linejoin:round;stroke-miterlimit:2;"><rect id="PatternBody" x="0" y="0" width="512" height="512" style="fill:none;"/><clipPath id="_clip1"><rect x="0" y="0" width="512" height="512"/></clipPath><g clip-path="url(#_clip1)"><g opacity="0.35"><rect x="0" y="-0" width="512" height="512" style="fill:#f00;fill-opacity:0.15;"/><g opacity="0.3"><g><path d="M616.982,-23.411l-640.393,640.393l-81.571,-81.571l640.393,-640.393l81.571,81.571Z" style="fill:#c72b00;"/><path d="M872.982,232.589l-640.393,640.393l-81.571,-81.571l640.393,-640.393l81.571,81.571Z" style="fill:#c72b00;"/><path d="M360.982,-279.411l-640.393,640.393l-81.571,-81.571l640.393,-640.393l81.571,81.571Z" style="fill:#c72b00;"/></g><g><path d="M616.982,-23.411l-640.393,640.393l-81.571,-81.571l640.393,-640.393l81.571,81.571Z" style="fill:#c72b00;"/><path d="M872.982,232.589l-640.393,640.393l-81.571,-81.571l640.393,-640.393l81.571,81.571Z" style="fill:#c72b00;"/><path d="M360.982,-279.411l-640.393,640.393l-81.571,-81.571l640.393,-640.393l81.571,81.571Z" style="fill:#c72b00;"/></g></g></g></g></svg>